name C:\Users\u0150099\Documents\master_thesis\3dpredictsim\Results\debug\Fal_s1_mtjc2_sc_cspx10_oy2_MTc2_MTPm_k1_d01_MTJm_nl_MG_exp5_table_d01_PF_Natali2010_x5_ls146_ig21.mot
datacolumns 128
datarows 4
range 0.53136244 0.56324419
endheader
time	pelvis_tilt	pelvis_list	pelvis_rotation	pelvis_tx	pelvis_ty	pelvis_tz	hip_flexion_l	hip_adduction_l	hip_rotation_l	hip_flexion_r	hip_adduction_r	hip_rotation_r	knee_angle_l	knee_angle_r	ankle_angle_l	ankle_angle_r	subtalar_angle_l	subtalar_angle_r	mtj_angle_l	mtj_angle_r	mtp_angle_l	mtp_angle_r	lumbar_extension	lumbar_bending	lumbar_rotation	arm_flex_l	arm_add_l	arm_rot_l	arm_flex_r	arm_add_r	arm_rot_r	elbow_flex_l	elbow_flex_r	pro_sup_l	pro_sup_r	glut_med1_l/activation	glut_med2_l/activation	glut_med3_l/activation	glut_min1_l/activation	glut_min2_l/activation	glut_min3_l/activation	semimem_l/activation	semiten_l/activation	bifemlh_l/activation	bifemsh_l/activation	sar_l/activation	add_long_l/activation	add_brev_l/activation	add_mag1_l/activation	add_mag2_l/activation	add_mag3_l/activation	tfl_l/activation	pect_l/activation	grac_l/activation	glut_max1_l/activation	glut_max2_l/activation	glut_max3_l/activation	iliacus_l/activation	psoas_l/activation	quad_fem_l/activation	gem_l/activation	peri_l/activation	rect_fem_l/activation	vas_med_l/activation	vas_int_l/activation	vas_lat_l/activation	med_gas_l/activation	lat_gas_l/activation	soleus_l/activation	tib_post_l/activation	flex_dig_l/activation	flex_hal_l/activation	tib_ant_l/activation	per_brev_l/activation	per_long_l/activation	per_tert_l/activation	ext_dig_l/activation	ext_hal_l/activation	ercspn_l/activation	intobl_l/activation	extobl_l/activation	glut_med1_r/activation	glut_med2_r/activation	glut_med3_r/activation	glut_min1_r/activation	glut_min2_r/activation	glut_min3_r/activation	semimem_r/activation	semiten_r/activation	bifemlh_r/activation	bifemsh_r/activation	sar_r/activation	add_long_r/activation	add_brev_r/activation	add_mag1_r/activation	add_mag2_r/activation	add_mag3_r/activation	tfl_r/activation	pect_r/activation	grac_r/activation	glut_max1_r/activation	glut_max2_r/activation	glut_max3_r/activation	iliacus_r/activation	psoas_r/activation	quad_fem_r/activation	gem_r/activation	peri_r/activation	rect_fem_r/activation	vas_med_r/activation	vas_int_r/activation	vas_lat_r/activation	med_gas_r/activation	lat_gas_r/activation	soleus_r/activation	tib_post_r/activation	flex_dig_r/activation	flex_hal_r/activation	tib_ant_r/activation	per_brev_r/activation	per_long_r/activation	per_tert_r/activation	ext_dig_r/activation	ext_hal_r/activation	ercspn_r/activation	intobl_r/activation	extobl_r/activation	
          0.53136244	         -2.92911767	          0.95386602	         -2.77336263	          0.70671205	          0.90806999	          0.00293671	         28.58896720	          2.52590623	         -1.99822969	        -18.00903537	          1.83167195	          9.13632588	         -8.51469697	         -6.32150619	          7.62475584	          7.74118406	          0.29388056	          5.23500927	          2.12930907	         -0.72012601	         -6.17332998	         11.06389528	         -3.92007589	         -0.13601697	          1.88638966	         -4.91716634	        -13.47873037	          5.90597504	          4.53198627	        -13.68677627	         19.37455014	         25.59369969	         32.33890208	         86.51662706	         86.51662706	          0.05000033	          0.05000062	          0.05000208	          0.05000074	          0.05000075	          0.05000074	          0.16389326	          0.06928097	          0.32933479	          0.06210722	          0.05000062	          0.18402021	          0.17486438	          0.11892362	          0.13948430	          0.09958954	          0.05000221	          0.05419706	          0.16391507	          0.05001504	          0.05020996	          0.07494007	          0.05000035	          0.05000034	          0.15536492	          0.05001005	          0.05000054	          0.05000081	          0.05001082	          0.05001019	          0.05000492	          0.05529597	          0.05000023	          0.05000001	          0.05000034	          0.07686922	          0.05000105	          0.27790500	          0.05919902	          0.11183298	          0.19099478	          0.55212663	          0.18665223	          0.06928055	          0.08780399	          0.09599640	          0.38553816	          0.09599640	          0.05885606	          0.51951782	          0.25480583	          0.10891967	          0.05000190	          0.05000016	          0.05000011	          0.08628134	          0.11299898	          0.05000005	          0.05000007	          0.05000015	          0.05000054	          0.05000029	          0.60746896	          0.05000025	          0.05000037	          0.05002073	          0.05000277	          0.05000079	          0.36120750	          0.77239008	          0.05000012	          0.05000067	          0.05000031	          0.23345030	          0.05000020	          0.05000019	          0.05000019	          0.41826718	          0.47779046	          0.36702830	          0.35030201	          0.24628790	          0.41662066	          0.05000003	          0.05000012	          0.11223087	          0.05000009	          0.05885529	          0.10748072	          0.05000001	          0.05000000	          0.05000001	
          0.54198969	         -2.93017133	          1.01450515	         -3.00861782	          0.72320609	          0.90783067	          0.00273511	         28.14253444	          2.90988046	         -1.92586899	        -17.92801991	          1.59105870	          9.06722084	         -8.54196400	         -8.19511770	          7.26788122	          7.21141575	          0.24207266	          6.08669012	          2.32670332	         -1.77458804	         -6.76293904	         13.84570095	         -3.76111474	         -0.30389077	          1.99102683	         -5.58616047	        -13.45393642	          5.52404460	          4.17731025	        -13.63404986	         19.28765436	         25.17589085	         33.50185665	         86.51662706	         86.51662706	          0.05885604	          0.05885603	          0.05000014	          0.05885605	          0.05885604	          0.05885598	          0.13999905	          0.05885686	          0.29145910	          0.07466462	          0.05000024	          0.16316881	          0.22683532	          0.10102961	          0.14320799	          0.12555575	          0.05000153	          0.08273544	          0.18637891	          0.05000022	          0.05000010	          0.09386005	          0.05000116	          0.05000017	          0.32238243	          0.05000051	          0.13610958	          0.05000002	          0.05000014	          0.05000013	          0.05000013	          0.06234743	          0.06717719	          0.05018229	          0.05000015	          0.06530294	          0.05869187	          0.28988430	          0.05029152	          0.13787945	          0.28065030	          0.59386037	          0.31286655	          0.05885595	          0.07459217	          0.08155188	          0.32752648	          0.08155188	          0.05000004	          0.44134631	          0.21646536	          0.09253061	          0.05000164	          0.05000024	          0.05000016	          0.07329864	          0.09599618	          0.05005821	          0.05000057	          0.05000048	          0.05000158	          0.05000159	          0.51606410	          0.05000998	          0.05000024	          0.05000066	          0.05000044	          0.05000044	          0.30685681	          0.73777604	          0.05000004	          0.05000015	          0.05000004	          0.19832321	          0.07390873	          0.07176571	          0.06465061	          0.35533072	          0.40589758	          0.32048738	          0.31612415	          0.20923642	          0.38174684	          0.05000000	          0.05885608	          0.09534359	          0.05000008	          0.05000002	          0.09130817	          0.05000001	          0.05000005	          0.05520338	
          0.55261694	         -2.92912858	          1.08882448	         -3.22745729	          0.73996667	          0.90767338	          0.00251237	         27.71238291	          3.26085037	         -1.83895865	        -17.73820558	          1.32924069	          8.96514170	         -9.17102450	        -10.21402609	          6.58982559	          6.45563427	          0.21336484	          6.99846526	          2.49203805	         -2.91877990	         -7.21891911	         16.88022202	         -3.58672469	         -0.48914573	          2.08717717	         -6.26989646	        -13.45233701	          5.32876029	          3.73890266	        -13.59090959	         19.16180364	         24.76435448	         34.72492352	         86.51662706	         86.51662706	          0.05000001	          0.05000004	          0.15361320	          0.05000004	          0.05000004	          0.05000007	          0.11893347	          0.05000073	          0.24760341	          0.06342993	          0.06929575	          0.13861737	          0.32958064	          0.47380799	          0.28657640	          0.11648098	          0.05000008	          0.07061602	          0.15834015	          0.05885598	          0.05885622	          0.18831457	          0.05000564	          0.06928083	          0.60338061	          0.20850116	          0.11563113	          0.06928071	          0.06284160	          0.06262632	          0.05890542	          0.07084674	          0.08155174	          0.06928083	          0.05000009	          0.06928097	          0.06928122	          0.34138197	          0.13935796	          0.11713284	          0.41512794	          0.60380550	          0.26578991	          0.05000000	          0.06336832	          0.06928082	          0.27824375	          0.06928083	          0.05885625	          0.37493719	          0.18389396	          0.07860762	          0.05001184	          0.05000034	          0.05000082	          0.06226945	          0.08155178	          0.11945091	          0.20094799	          0.06927886	          0.05596585	          0.05887085	          0.52956615	          0.05003000	          0.05000705	          0.05000882	          0.05000798	          0.05006374	          0.26068423	          0.69269049	          0.05885760	          0.05885863	          0.05885610	          0.22619825	          0.13660838	          0.14594780	          0.11329188	          0.30186428	          0.34482237	          0.27226380	          0.26855715	          0.17775288	          0.32430588	          0.05000000	          0.05000006	          0.08099729	          0.05000003	          0.05000002	          0.07756910	          0.06415441	          0.06928077	          0.06200259	
          0.56324419	         -2.92641068	          1.20047762	         -3.42948598	          0.75694025	          0.90757619	          0.00231233	         27.24136696	          3.51663021	         -1.66344513	        -17.45249786	          1.03059626	          8.82113913	        -10.10909343	        -12.32455510	          5.67080799	          5.40365597	          0.20894340	          7.91063850	          2.60722322	         -4.12389665	         -7.54378378	         20.15050358	         -3.39875963	         -0.71715362	          2.17231266	         -6.95502681	        -13.48161490	          5.29739507	          3.22693839	        -13.55155982	         19.02008398	         24.34597265	         36.00373428	         86.51662706	         86.51662706	          0.35248513	          0.34657399	          0.43879231	          0.31641865	          0.05000146	          0.31938452	          0.11915281	          0.05000198	          0.21034829	          0.05957233	          0.05886893	          0.11775976	          0.35886754	          0.40251440	          0.24345614	          0.22647468	          0.05000032	          0.06928769	          0.15965007	          0.05000006	          0.05000018	          0.24763757	          0.05885609	          0.05885621	          0.51259024	          0.17712816	          0.15344528	          0.05885608	          0.05338595	          0.05320305	          0.05004204	          0.06018647	          0.06928069	          0.05885618	          0.05885609	          0.05885632	          0.05885655	          0.41197920	          0.11838889	          0.10362105	          0.39060129	          0.70781455	          0.57025614	          0.05952779	          0.08155180	          0.05885618	          0.23637723	          0.05885620	          0.05000021	          0.31852069	          0.15622356	          0.06677959	          0.05000096	          0.05000037	          0.05000025	          0.05289983	          0.06928086	          0.15194651	          0.19802704	          0.05885527	          0.05001274	          0.05001293	          0.57207582	          0.06928080	          0.05000689	          0.05001037	          0.05000384	          0.05000212	          0.22145923	          0.66071503	          0.05000147	          0.05000232	          0.05000007	          0.19216232	          0.11605306	          0.12398717	          0.09624497	          0.25644290	          0.29293711	          0.23129639	          0.22814750	          0.15100652	          0.27550780	          0.05000021	          0.05000011	          0.07464474	          0.05000004	          0.05000006	          0.06589734	          0.08002994	          0.05885613	          0.05267312	
